# xmcd CD database file
#
# Track frame offsets:
#	150
#	8330
#	20227
#	32103
#	40440
#	53559
#	66945
#	79137
#	90263
#	103220
#	114286
#	126134
#	136422
#	148985
#	165756
#	179202
#	189047
#
# Disc length: 2641 seconds
#
# Revision: 0
# Processed by: cddbd v1.5.2PL0 Copyright (c) Steve Scherf et al.
# Submitted via: CDex 1.70beta2
#
DISCID=df0a4f11
DTITLE=King, Marie - Cdn. - OVM - ON - 50 Ans de Musique Country
DYEAR=1900
DGENRE=Country
TTITLE0=Coeur Delaisser
TTITLE1=Tous les Soirs
TTITLE2=Oh mon Cheri
TTITLE3=Adieu
TTITLE4=Valse du Bonheur
TTITLE5=Berceuse Tyrolie
TTITLE6=If only you Knew
TTITLE7=Reviens moi
TTITLE8=Crying Time
TTITLE9=Un Echange d'Amo
TTITLE10=Derniers Jours D
TTITLE11=Peux tu jurer mo
TTITLE12=Choses que l'on 
TTITLE13=Cheri
TTITLE14=Mon seul Amour
TTITLE15=Cloches de ma Va
TTITLE16=Bob King - Ma petite Marie
EXTD=
EXTT0=
EXTT1=
EXTT2=
EXTT3=
EXTT4=
EXTT5=
EXTT6=
EXTT7=
EXTT8=
EXTT9=
EXTT10=
EXTT11=
EXTT12=
EXTT13=
EXTT14=
EXTT15=
EXTT16=
PLAYORDER=
